<?xml version="1.0" encoding="utf-8"?>
<!-- Generator: Adobe Illustrator 16.0.0, SVG Export Plug-In . SVG Version: 6.00 Build 0)  -->
<!DOCTYPE svg PUBLIC "-//W3C//DTD SVG 1.0//EN" "http://www.w3.org/TR/2001/REC-SVG-20010904/DTD/svg10.dtd">
<svg version="1.0" id="图层_1" xmlns="http://www.w3.org/2000/svg" xmlns:xlink="http://www.w3.org/1999/xlink" x="0px" y="0px"
	 width="125px" height="63px" viewBox="243.5 364.5 125 63" enable-background="new 243.5 364.5 125 63" xml:space="preserve">
<rect x="243.585" y="364.5" fill="#F9F9F9" width="124.915" height="62.778"/>
<rect x="243.5" y="364.5" fill="#FFCE3D" width="4.598" height="63"/>
<text transform="matrix(0.9996 0 0 1 296.0303 403.3701)" opacity="0.8" enable-background="new    " font-family="'MicrosoftYaHeiLight'" font-size="21.5435">定义</text>
<path fill="#FFCE3D" d="M265.043,394.143l7.664,7.667l-2.811,2.81l-7.664-7.664L265.043,394.143z M261.467,396.443l-1.533-1.192
	c-0.426-0.426-0.341-1.534,0.17-2.13l0.766-0.766c0.426-0.426,1.532-0.767,1.958-0.17l1.362,1.533L261.467,396.443z
	 M273.729,406.323l-3.406-1.106l2.811-2.811l0.936,3.577L273.729,406.323z M276.367,382.473c1.363,0,2.811,1.193,2.811,2.811
	l-0.17,0.597h8.344v23.51h-21.883v-6.645l2.469,1.96v2.13h16.945v-18.485h-3.576l1.191,2.641h-11.835h-0.426l1.192-2.641h-3.576v6.9
	l-2.47-2.3v-7.241h8.345l-0.171-0.596C273.643,383.666,275.005,382.473,276.367,382.473 M276.367,384.006
	c-0.596,0-1.191,0.426-1.191,1.107c0,0.17,0.34,0.596,0.34,0.767h1.959c0.17-0.171,0.341-0.597,0.341-0.767
	C277.73,384.433,276.964,384.006,276.367,384.006"/>
<rect x="243.5" y="425.234" fill="#E5E5E5" width="125" height="2.266"/>
</svg>
