<?xml version="1.0" encoding="utf-8"?>
<!-- Generator: Adobe Illustrator 20.0.0, SVG Export Plug-In . SVG Version: 6.00 Build 0)  -->
<svg version="1.1" id="图层_1" xmlns="http://www.w3.org/2000/svg" xmlns:xlink="http://www.w3.org/1999/xlink" x="0px" y="0px"
	 viewBox="0 0 147 74" style="enable-background:new 0 0 147 74;" xml:space="preserve">
<style type="text/css">
	.st0{fill:#F9F9F9;}
	.st1{fill:#F9B048;}
	.st2{opacity:0.8;enable-background:new    ;}
	.st3{font-family:'MicrosoftYaHeiLight';}
	.st4{font-size:25.2914px;}
	.st5{fill:#E5E5E5;}
</style>
<rect x="0.2" y="0.1" class="st0" width="146.7" height="73.7"/>
<rect x="0.1" y="0.1" class="st1" width="5.4" height="74.1"/>
<text transform="matrix(1 0 0 1 61.7905 45.7314)" class="st2 st3 st4">定义</text>
<path class="st1" d="M25.4,34.9l9,9l-3.3,3.3l-9-9L25.4,34.9z M21.2,37.6l-1.8-1.4c-0.5-0.5-0.4-1.8,0.2-2.5l0.9-0.9
	c0.5-0.5,1.8-0.9,2.3-0.2l1.6,1.8L21.2,37.6z M35.6,49.2l-4-1.3l3.3-3.3l1.1,4.2L35.6,49.2z M38.7,21.2c1.6,0,3.3,1.4,3.3,3.3
	l-0.2,0.7h9.8v27.6H25.9V45l2.9,2.3v2.5h19.9V28.1h-4.2l1.4,3.1H32h-0.5l1.4-3.1h-4.2v8.1l-2.9-2.7V25h9.8l-0.2-0.7
	C35.5,22.6,37.1,21.2,38.7,21.2 M38.7,23c-0.7,0-1.4,0.5-1.4,1.3c0,0.2,0.4,0.7,0.4,0.9H40c0.2-0.2,0.4-0.7,0.4-0.9
	C40.3,23.5,39.4,23,38.7,23"/>
<rect x="0.2" y="71.4" class="st5" width="146.7" height="2.7"/>
</svg>
