<?xml version="1.0" encoding="utf-8"?>
<!-- Generator: Adobe Illustrator 16.0.0, SVG Export Plug-In . SVG Version: 6.00 Build 0)  -->
<!DOCTYPE svg PUBLIC "-//W3C//DTD SVG 1.0//EN" "http://www.w3.org/TR/2001/REC-SVG-20010904/DTD/svg10.dtd">
<svg version="1.0" id="图层_1" xmlns="http://www.w3.org/2000/svg" xmlns:xlink="http://www.w3.org/1999/xlink" x="0px" y="0px"
	 width="125px" height="63px" viewBox="243.5 364.5 125 63" enable-background="new 243.5 364.5 125 63" xml:space="preserve">
<rect x="243.5" y="364.5" fill="#FFCE3D" width="125" height="63"/>
<text transform="matrix(0.9968 0 0 1 295.9795 403.5068)" fill="#FFFFFF" font-family="'MicrosoftYaHeiLight'" font-size="21.6195">定义</text>
<path fill="#FFFFFF" d="M264.973,394.248l7.668,7.694l-2.812,2.821l-7.668-7.694L264.973,394.248z M261.394,396.556l-1.534-1.197
	c-0.426-0.427-0.341-1.538,0.17-2.137l0.767-0.769c0.426-0.428,1.534-0.769,1.959-0.171l1.363,1.54L261.394,396.556z
	 M273.664,406.472l-3.408-1.111l2.812-2.821l0.938,3.591L273.664,406.472z M276.305,382.536c1.364,0,2.813,1.197,2.813,2.821
	l-0.171,0.598h8.351v23.593h-21.898v-6.667l2.471,1.966v2.138h16.957v-18.551h-3.579l1.192,2.651h-11.843h-0.426l1.193-2.651h-3.579
	v6.924l-2.471-2.308v-7.266h8.351l-0.17-0.599C273.579,383.733,274.942,382.536,276.305,382.536 M276.305,384.075
	c-0.596,0-1.192,0.428-1.192,1.111c0,0.171,0.341,0.599,0.341,0.769h1.96c0.17-0.17,0.34-0.598,0.34-0.769
	C277.668,384.503,276.901,384.075,276.305,384.075"/>
</svg>
