<?xml version="1.0" encoding="utf-8"?>
<!-- Generator: Adobe Illustrator 16.0.0, SVG Export Plug-In . SVG Version: 6.00 Build 0)  -->
<!DOCTYPE svg PUBLIC "-//W3C//DTD SVG 1.0//EN" "http://www.w3.org/TR/2001/REC-SVG-20010904/DTD/svg10.dtd">
<svg version="1.0" id="图层_1" xmlns="http://www.w3.org/2000/svg" xmlns:xlink="http://www.w3.org/1999/xlink" x="0px" y="0px"
	 width="125px" height="63px" viewBox="243.5 364.5 125 63" enable-background="new 243.5 364.5 125 63" xml:space="preserve">
<rect x="243.585" y="364.5" fill="#3DB8C1" width="124.915" height="63"/>
<text transform="matrix(1.0015 0 0 1 296.0283 403.2949)" fill="#F9F9F9" font-family="'MicrosoftYaHeiLight'" font-size="21.5028">感知</text>
<path fill="#F9F9F9" d="M286.586,398.168c0,6.547-5.194,11.988-11.921,11.988c-6.557,0-12.006-5.187-12.006-11.903
	c0-6.121,4.684-11.308,10.814-11.988v-1.19h-3.576v-2.636h9.622v2.636h-3.577v1.19c2.299,0.255,4.513,1.19,6.387,2.636l0.766-0.765
	l-1.703-1.701l1.618-1.615l5.109,5.101l-1.618,1.615l-1.704-1.615l-0.766,0.765C285.649,392.727,286.756,395.362,286.586,398.168
	 M265.895,396.978h2.98v2.381h-3.321c0.681,4.166,4.002,7.313,8.174,7.991v-3.314h2.384v3.314c4.172-0.679,7.493-3.911,8.174-7.991
	h-3.406v-2.381h3.321c-0.681-4.166-4.002-7.312-8.174-7.992v3.316h-2.384v-3.316c-4.172,0.68-7.493,3.911-8.174,7.992
	 M274.665,395.788c1.362-0.17,2.384,0.935,2.554,2.125c0.17,1.36-0.937,2.381-2.129,2.55c-0.17,0-0.255,0-0.255,0l-4.938,3.572
	l2.384-5.867C272.281,396.893,273.388,395.788,274.665,395.788L274.665,395.788"/>
</svg>
