<?xml version="1.0" encoding="utf-8"?>
<!-- Generator: Adobe Illustrator 16.0.0, SVG Export Plug-In . SVG Version: 6.00 Build 0)  -->
<!DOCTYPE svg PUBLIC "-//W3C//DTD SVG 1.0//EN" "http://www.w3.org/TR/2001/REC-SVG-20010904/DTD/svg10.dtd">
<svg version="1.0" id="图层_1" xmlns="http://www.w3.org/2000/svg" xmlns:xlink="http://www.w3.org/1999/xlink" x="0px" y="0px"
	 width="125px" height="63px" viewBox="243.5 364.5 125 63" enable-background="new 243.5 364.5 125 63" xml:space="preserve">
<rect x="243.5" y="364.5" fill="#F9F9F9" width="125" height="63"/>
<rect x="243.5" y="364.5" fill="#3DB8C1" width="4.598" height="63"/>
<text transform="matrix(1.0015 0 0 1 296.0278 403.293)" opacity="0.8" enable-background="new    " font-family="'MicrosoftYaHeiLight'" font-size="21.5028">感知</text>
<rect x="243.5" y="425.118" fill="#E5E5E5" width="125" height="2.382"/>
<path fill="#3DB8C1" d="M286.585,398.167c0,6.547-5.193,11.989-11.92,11.989c-6.557,0-12.006-5.187-12.006-11.903
	c0-6.121,4.683-11.308,10.814-11.988v-1.189h-3.576v-2.636h9.622v2.636h-3.577v1.189c2.299,0.255,4.513,1.191,6.386,2.636
	l0.766-0.765l-1.702-1.701l1.617-1.615l5.109,5.102l-1.618,1.615l-1.703-1.615l-0.767,0.765
	C285.649,392.727,286.756,395.362,286.585,398.167 M265.894,396.978h2.98v2.381h-3.321c0.681,4.166,4.002,7.312,8.174,7.991v-3.315
	h2.384v3.315c4.172-0.68,7.494-3.91,8.174-7.991h-3.406v-2.381h3.321c-0.681-4.166-4.002-7.312-8.174-7.992v3.316h-2.384v-3.316
	c-4.172,0.68-7.493,3.912-8.174,7.992 M274.665,395.788c1.362-0.17,2.384,0.934,2.554,2.125c0.17,1.359-0.937,2.38-2.128,2.55
	c-0.17,0-0.256,0-0.256,0l-4.938,3.571l2.384-5.867C272.281,396.894,273.387,395.788,274.665,395.788L274.665,395.788"/>
</svg>
