<?xml version="1.0" encoding="utf-8"?>
<!-- Generator: Adobe Illustrator 20.0.0, SVG Export Plug-In . SVG Version: 6.00 Build 0)  -->
<svg version="1.1" id="图层_1" xmlns="http://www.w3.org/2000/svg" xmlns:xlink="http://www.w3.org/1999/xlink" x="0px" y="0px"
	 viewBox="0 0 147 74" style="enable-background:new 0 0 147 74;" xml:space="preserve">
<style type="text/css">
	.st0{fill:#21CDB8;}
	.st1{fill:#F9F9F9;}
	.st2{font-family:'MicrosoftYaHeiLight';}
	.st3{font-size:25.2914px;}
</style>
<rect x="0.2" y="0.1" class="st0" width="146.7" height="73.7"/>
<rect x="0.1" y="0.1" class="st0" width="5.4" height="74.1"/>
<text transform="matrix(1 0 0 1 61.7905 45.7314)" class="st1 st2 st3">感知</text>
<path class="st1" d="M50.7,39.7c0,7.7-6.1,14.1-14,14.1c-7.7,0-14.1-6.1-14.1-14c0-7.2,5.5-13.3,12.7-14.1v-1.4h-4.2v-3.1h11.3v3.1
	h-4.2v1.4c2.7,0.3,5.3,1.4,7.5,3.1l0.9-0.9l-2-2l1.9-1.9l6,6l-1.9,1.9l-2-1.9l-0.9,0.9C49.6,33.3,50.9,36.4,50.7,39.7 M26.4,38.3
	h3.5v2.8h-3.9c0.8,4.9,4.7,8.6,9.6,9.4v-3.9h2.8v3.9c4.9-0.8,8.8-4.6,9.6-9.4H44v-2.8h3.9c-0.8-4.9-4.7-8.6-9.6-9.4v3.9h-2.8v-3.9
	c-4.9,0.8-8.8,4.6-9.6,9.4 M36.7,36.9c1.6-0.2,2.8,1.1,3,2.5c0.2,1.6-1.1,2.8-2.5,3c-0.2,0-0.3,0-0.3,0l-5.8,4.2l2.8-6.9
	C33.9,38.2,35.2,36.9,36.7,36.9L36.7,36.9"/>
</svg>
