<?xml version="1.0" encoding="utf-8"?>
<!-- Generator: Adobe Illustrator 16.0.0, SVG Export Plug-In . SVG Version: 6.00 Build 0)  -->
<!DOCTYPE svg PUBLIC "-//W3C//DTD SVG 1.0//EN" "http://www.w3.org/TR/2001/REC-SVG-20010904/DTD/svg10.dtd">
<svg version="1.0" id="图层_1" xmlns="http://www.w3.org/2000/svg" xmlns:xlink="http://www.w3.org/1999/xlink" x="0px" y="0px"
	 width="125px" height="63px" viewBox="243.5 364.5 125 63" enable-background="new 243.5 364.5 125 63" xml:space="preserve">
<rect x="243.585" y="364.5" fill="#F9F9F9" width="124.899" height="62.659"/>
<rect x="243.5" y="364.5" fill="#3DBD7D" width="4.598" height="63"/>
<text transform="matrix(1.0014 0 0 1 296.0225 403.2939)" opacity="0.8" enable-background="new    " font-family="'MicrosoftYaHeiLight'" font-size="21.5028">开始</text>
<rect x="243.5" y="425.119" fill="#E5E5E5" width="125" height="2.381"/>
<g>
	<path fill="#3DBD7D" d="M275.342,408.54c-6.641,0-12.005-5.44-12.005-12.073c0-6.631,5.449-11.987,12.005-11.987
		c6.555,0,12.09,5.441,12.09,12.073S281.983,408.54,275.342,408.54z M275.342,386.945c-5.449,0-9.707,4.336-9.707,9.692
		c0,5.356,4.343,9.693,9.707,9.693c5.363,0,9.791-4.252,9.791-9.693C285.133,391.197,280.706,386.945,275.342,386.945z"/>
	<polygon fill="#3DBD7D" points="282.153,396.553 271.596,390.431 271.596,402.589 	"/>
</g>
</svg>
