<?xml version="1.0" encoding="utf-8"?>
<!-- Generator: Adobe Illustrator 16.0.0, SVG Export Plug-In . SVG Version: 6.00 Build 0)  -->
<!DOCTYPE svg PUBLIC "-//W3C//DTD SVG 1.0//EN" "http://www.w3.org/TR/2001/REC-SVG-20010904/DTD/svg10.dtd">
<svg version="1.0" id="图层_1" xmlns="http://www.w3.org/2000/svg" xmlns:xlink="http://www.w3.org/1999/xlink" x="0px" y="0px"
	 width="125px" height="63px" viewBox="243.5 364.5 125 63" enable-background="new 243.5 364.5 125 63" xml:space="preserve">
<rect x="243.5" y="364.5" fill="#3DBD7D" width="124.984" height="63"/>
<text transform="matrix(1.0014 0 0 1 296.022 403.2959)" fill="#F9F9F9" font-family="'MicrosoftYaHeiLight'" font-size="21.5028">开始</text>
<rect x="243.5" y="425.118" fill="#E5E5E5" width="124.984" height="2.382"/>
<g>
	<path fill="#F9F9F9" d="M275.342,408.541c-6.641,0-12.005-5.442-12.005-12.074s5.449-11.988,12.005-11.988
		c6.555,0,12.089,5.441,12.089,12.074C287.432,403.184,281.983,408.541,275.342,408.541z M275.342,386.945
		c-5.449,0-9.707,4.336-9.707,9.692c0,5.356,4.342,9.692,9.707,9.692c5.363,0,9.791-4.251,9.791-9.692
		S280.706,386.945,275.342,386.945z"/>
	<polygon fill="#F9F9F9" points="282.153,396.554 271.596,390.431 271.596,402.589 	"/>
</g>
</svg>
