<?xml version="1.0" encoding="utf-8"?>
<!-- Generator: Adobe Illustrator 16.0.0, SVG Export Plug-In . SVG Version: 6.00 Build 0)  -->
<!DOCTYPE svg PUBLIC "-//W3C//DTD SVG 1.0//EN" "http://www.w3.org/TR/2001/REC-SVG-20010904/DTD/svg10.dtd">
<svg version="1.0" id="图层_1" xmlns="http://www.w3.org/2000/svg" xmlns:xlink="http://www.w3.org/1999/xlink" x="0px" y="0px"
	 width="125px" height="63px" viewBox="243.5 364.5 125 63" enable-background="new 243.5 364.5 125 63" xml:space="preserve">
<rect x="243.585" y="364.5" fill="#948AEC" width="124.915" height="63.07"/>
<text transform="matrix(1.0015 0 0 1 296.0283 403.2949)" fill="#F9F9F9" font-family="'MicrosoftYaHeiLight'" font-size="21.5028">控制</text>
<g>
	<polygon fill="#F9F9F9" points="269.471,389.496 270.152,388.646 273.388,392.897 272.536,393.492 	"/>
	<polygon fill="#F9F9F9" points="274.75,406.5 274.58,399.869 275.687,399.273 275.857,406.415 	"/>
	
		<rect x="279.498" y="395.382" transform="matrix(-0.1096 0.994 -0.994 -0.1096 705.6813 162.5074)" fill="#F9F9F9" width="1.105" height="3.917"/>
	<polygon fill="#F9F9F9" points="277.645,394.853 276.794,394.172 281.817,389.071 282.499,389.921 	"/>
	
		<rect x="267.842" y="398.573" transform="matrix(-0.8751 0.4839 -0.4839 -0.8751 698.9656 617.875)" fill="#F9F9F9" width="3.83" height="1.106"/>
	<path fill="#F9F9F9" d="M267.938,383.63c2.043-0.51,4.087,0.68,4.683,2.55c0.511,2.041-0.681,4.081-2.554,4.676
		c-2.043,0.51-4.087-0.68-4.684-2.55C264.788,386.265,265.979,384.14,267.938,383.63"/>
	<path fill="#F9F9F9" d="M280.625,388.986c0-1.105,0.852-1.871,1.874-1.871s1.874,0.851,1.874,1.871c0,1.105-0.852,1.87-1.874,1.87
		C281.477,391.026,280.625,390.006,280.625,388.986"/>
	<path fill="#F9F9F9" d="M265.979,403.438c-1.362,0.171-2.725-0.85-2.895-2.21c-0.17-1.359,0.852-2.551,2.214-2.89
		c1.363-0.171,2.725,0.85,2.895,2.21C268.449,402.079,267.512,403.27,265.979,403.438"/>
	<path fill="#F9F9F9" d="M273.558,407.35c0-1.105,0.851-1.87,2.043-1.87c1.107,0,2.043,0.851,2.043,1.87
		c0,1.105-0.937,1.871-2.043,1.871C274.495,409.306,273.558,408.455,273.558,407.35"/>
	<path fill="#F9F9F9" d="M281.988,397.913c0-1.36,1.107-2.551,2.554-2.551c1.362,0,2.555,1.106,2.555,2.551
		c0,1.36-1.107,2.55-2.555,2.55C283.095,400.549,281.988,399.273,281.988,397.913"/>
	<path fill="#F9F9F9" d="M270.237,396.553c0-2.465,2.044-4.506,4.513-4.506s4.513,2.041,4.513,4.506
		c0,2.466-2.043,4.506-4.513,4.506C272.281,400.974,270.237,399.019,270.237,396.553"/>
</g>
</svg>
