<?xml version="1.0" encoding="utf-8"?>
<!-- Generator: Adobe Illustrator 20.0.0, SVG Export Plug-In . SVG Version: 6.00 Build 0)  -->
<svg version="1.1" id="图层_1" xmlns="http://www.w3.org/2000/svg" xmlns:xlink="http://www.w3.org/1999/xlink" x="0px" y="0px"
	 viewBox="0 0 147 74" style="enable-background:new 0 0 147 74;" xml:space="preserve">
<style type="text/css">
	.st0{fill:#F9F9F9;}
	.st1{fill:#9491C6;}
	.st2{opacity:0.8;enable-background:new    ;}
	.st3{font-family:'MicrosoftYaHeiLight';}
	.st4{font-size:25.2914px;}
	.st5{fill:#E5E5E5;}
	.st6{fill:#0A3D54;}
	.st7{fill:#F0E160;}
	.st8{fill:#FF7664;}
	.st9{fill:#49C47B;}
	.st10{fill:#FF755A;}
	.st11{fill:#66BEE5;}
</style>
<rect x="0.2" y="0.1" class="st0" width="146.7" height="73.7"/>
<rect x="0.1" y="0.1" class="st1" width="5.4" height="74.1"/>
<text transform="matrix(1 0 0 1 61.7905 45.7314)" class="st2 st3 st4">控制</text>
<rect x="0.2" y="71.4" class="st5" width="146.7" height="2.7"/>
<g>
	<polygon class="st6" points="30.6,29.5 31.4,28.5 35.2,33.5 34.2,34.2 	"/>
	<polygon class="st6" points="36.8,49.5 36.6,41.7 37.9,41 38.1,49.4 	"/>
	<rect x="42.4" y="36.4" transform="matrix(0.1094 -0.994 0.994 0.1094 -0.1521 77.2843)" class="st6" width="1.3" height="4.6"/>
	<polygon class="st6" points="40.2,35.8 39.2,35 45.1,29 45.9,30 	"/>
	
		<rect x="28.7" y="40.2" transform="matrix(0.8748 -0.4844 0.4844 0.8748 -15.9259 20.0837)" class="st6" width="4.5" height="1.3"/>
	<path class="st7" d="M28.8,22.6c2.4-0.6,4.8,0.8,5.5,3c0.6,2.4-0.8,4.8-3,5.5c-2.4,0.6-4.8-0.8-5.5-3
		C25.1,25.7,26.5,23.2,28.8,22.6"/>
	<path class="st8" d="M43.7,28.9c0-1.3,1-2.2,2.2-2.2s2.2,1,2.2,2.2c0,1.3-1,2.2-2.2,2.2C44.7,31.3,43.7,30.1,43.7,28.9"/>
	<path class="st9" d="M26.5,45.9c-1.6,0.2-3.2-1-3.4-2.6c-0.2-1.6,1-3,2.6-3.4c1.6-0.2,3.2,1,3.4,2.6C29.4,44.3,28.3,45.7,26.5,45.9
		"/>
	<path class="st10" d="M35.4,50.5c0-1.3,1-2.2,2.4-2.2c1.3,0,2.4,1,2.4,2.2c0,1.3-1.1,2.2-2.4,2.2C36.5,52.8,35.4,51.8,35.4,50.5"/>
	<path class="st11" d="M45.3,39.4c0-1.6,1.3-3,3-3c1.6,0,3,1.3,3,3c0,1.6-1.3,3-3,3C46.6,42.5,45.3,41,45.3,39.4"/>
	<path class="st1" d="M31.5,37.8c0-2.9,2.4-5.3,5.3-5.3c2.9,0,5.3,2.4,5.3,5.3s-2.4,5.3-5.3,5.3C33.9,43,31.5,40.7,31.5,37.8"/>
</g>
</svg>
