<?xml version="1.0" encoding="utf-8"?>
<!-- Generator: Adobe Illustrator 16.0.0, SVG Export Plug-In . SVG Version: 6.00 Build 0)  -->
<!DOCTYPE svg PUBLIC "-//W3C//DTD SVG 1.0//EN" "http://www.w3.org/TR/2001/REC-SVG-20010904/DTD/svg10.dtd">
<svg version="1.0" id="图层_1" xmlns="http://www.w3.org/2000/svg" xmlns:xlink="http://www.w3.org/1999/xlink" x="0px" y="0px"
	 width="125px" height="63px" viewBox="243.5 364.5 125 63" enable-background="new 243.5 364.5 125 63" xml:space="preserve">
<rect x="243.5" y="364.5" fill="#948AEC" width="4.598" height="63"/>
<text transform="matrix(1.0015 0 0 1 296.0283 403.2949)" opacity="0.8" enable-background="new    " font-family="'MicrosoftYaHeiLight'" font-size="21.5028">控制</text>
<rect x="243.5" y="425.119" fill="#E5E5E5" width="125" height="2.381"/>
<g>
	<polygon fill="#0A3D54" points="269.471,389.496 270.152,388.646 273.388,392.897 272.536,393.492 	"/>
	<polygon fill="#0A3D54" points="274.75,406.5 274.58,399.869 275.687,399.272 275.857,406.415 	"/>
	
		<rect x="279.498" y="395.382" transform="matrix(-0.1096 0.994 -0.994 -0.1096 705.6813 162.5074)" fill="#0A3D54" width="1.105" height="3.917"/>
	<polygon fill="#0A3D54" points="277.645,394.852 276.794,394.172 281.817,389.071 282.499,389.921 	"/>
	
		<rect x="267.843" y="398.574" transform="matrix(-0.8752 0.4837 -0.4837 -0.8752 698.9171 617.9717)" fill="#0A3D54" width="3.83" height="1.106"/>
	<path fill="#FFCE3D" d="M267.938,383.629c2.043-0.51,4.087,0.68,4.683,2.551c0.511,2.041-0.681,4.081-2.554,4.676
		c-2.043,0.51-4.087-0.681-4.684-2.55C264.788,386.265,265.979,384.14,267.938,383.629"/>
	<path fill="#FF7664" d="M280.625,388.986c0-1.105,0.852-1.871,1.874-1.871s1.874,0.851,1.874,1.871
		c0,1.105-0.852,1.871-1.874,1.871C281.477,391.026,280.625,390.006,280.625,388.986"/>
	<path fill="#3DBD7D" d="M265.979,403.439c-1.362,0.17-2.725-0.851-2.895-2.211c-0.17-1.359,0.852-2.55,2.214-2.891
		c1.363-0.17,2.725,0.85,2.895,2.211C268.449,402.079,267.512,403.27,265.979,403.439"/>
	<path fill="#F46E65" d="M273.175,407.162c0-1.104,0.851-1.87,2.043-1.87c1.107,0,2.043,0.851,2.043,1.87
		c0,1.106-0.937,1.872-2.043,1.872C274.111,409.118,273.175,408.269,273.175,407.162"/>
	<path fill="#49A9EE" d="M281.988,397.913c0-1.36,1.107-2.551,2.554-2.551c1.362,0,2.555,1.105,2.555,2.551
		c0,1.359-1.107,2.55-2.555,2.55C283.095,400.549,281.988,399.272,281.988,397.913"/>
	<path fill="#9491C6" d="M270.237,396.553c0-2.465,2.044-4.506,4.513-4.506s4.513,2.041,4.513,4.506
		c0,2.465-2.043,4.506-4.513,4.506C272.281,400.974,270.237,399.018,270.237,396.553"/>
</g>
</svg>
