<?xml version="1.0" encoding="utf-8"?>
<!-- Generator: Adobe Illustrator 16.0.0, SVG Export Plug-In . SVG Version: 6.00 Build 0)  -->
<!DOCTYPE svg PUBLIC "-//W3C//DTD SVG 1.0//EN" "http://www.w3.org/TR/2001/REC-SVG-20010904/DTD/svg10.dtd">
<svg version="1.0" id="图层_1" xmlns="http://www.w3.org/2000/svg" xmlns:xlink="http://www.w3.org/1999/xlink" x="0px" y="0px"
	 width="125px" height="63px" viewBox="243.5 364.5 125 63" enable-background="new 243.5 364.5 125 63" xml:space="preserve">
<rect x="243.5" y="364.5" fill="#49A9EE" width="125" height="63"/>
<text transform="matrix(1.0152 0 0 1 296.0288 402.7715)" fill="#F9F9F9" font-family="'MicrosoftYaHeiLight'" font-size="21.2122">运动</text>
<g>
	<path fill="#F9F9F9" d="M272.281,401.487h-1.789V388.99c0-1.509,0.937-2.432,2.64-2.432c1.618,0,2.639,0.923,2.639,2.432v8.472
		h-1.788v-8.472c0-0.419,0-0.671-0.852-0.671c-0.681,0-0.852,0.251-0.852,0.671V401.487z"/>
	<path fill="#F9F9F9" d="M281.817,398.803h-1.788v-3.019c0-1.258-0.255-1.258-0.681-1.342c-0.511,0-0.852,0.168-0.852,0.168
		l-0.511-0.671l-0.511-0.671c0.17-0.167,0.851-0.503,2.043-0.503c1.532,0.167,2.214,1.258,2.214,3.104v2.935H281.817z"/>
	<path fill="#F9F9F9" d="M281.562,409.119l-1.277-1.258c0,0,2.214-2.432,2.214-6.374c0-1.762,0-2.601-0.17-4.109
		c0-0.839-0.256-1.091-0.426-1.259c-0.17-0.167-0.511-0.167-0.937-0.167l-0.255-1.761c0.937-0.168,1.788,0,2.384,0.419
		c0.681,0.503,0.937,1.342,1.107,2.432c0.17,1.51,0.17,2.349,0.17,4.193C284.116,406.268,281.562,409.036,281.562,409.119z"/>
	<path fill="#F9F9F9" d="M272.366,409.287c-0.17-0.168-2.469-2.013-3.747-3.69c-0.937-1.342-1.362-2.433-1.362-4.78
		c0-1.594,0.17-2.852,0.17-3.02c0.171-1.594,1.107-2.6,2.47-2.6c0.426,0,0.937,0,1.362,0.168l-0.511,1.593l0.255-0.839l-0.255,0.839
		c-0.17,0-0.511,0-0.852,0c-0.511,0-0.681,0.671-0.681,1.091c0,0-0.17,1.258-0.17,2.684c0,1.929,0.255,2.6,0.937,3.69
		c1.107,1.51,3.321,3.271,3.321,3.271L272.366,409.287z"/>
	<path fill="#F9F9F9" d="M279.007,397.713h-1.788v-2.852c0-1.51-0.511-1.51-0.852-1.51c-0.852,0-1.277,0.168-1.277,0.168
		l-0.851-1.594c0.17,0,0.851-0.419,2.043-0.419c0.851,0,2.64,0.252,2.64,3.271v2.936H279.007z"/>
	<path fill="#F9F9F9" d="M277.9,389.158h-1.362c0-2.013-1.618-3.523-3.576-3.523c-2.044,0-3.576,1.594-3.576,3.523h-1.362
		c0-2.684,2.213-4.865,4.938-4.865C275.687,384.126,277.9,386.39,277.9,389.158z"/>
	<path fill="#F9F9F9" d="M280.285,389.158h-0.937c0-3.439-2.896-6.291-6.386-6.291c-3.491,0-6.386,2.852-6.386,6.291h-0.937
		c0-3.942,3.321-7.213,7.323-7.213S280.285,385.048,280.285,389.158z"/>
</g>
</svg>
