<?xml version="1.0" encoding="utf-8"?>
<!-- Generator: Adobe Illustrator 16.0.0, SVG Export Plug-In . SVG Version: 6.00 Build 0)  -->
<!DOCTYPE svg PUBLIC "-//W3C//DTD SVG 1.0//EN" "http://www.w3.org/TR/2001/REC-SVG-20010904/DTD/svg10.dtd">
<svg version="1.0" id="图层_1" xmlns="http://www.w3.org/2000/svg" xmlns:xlink="http://www.w3.org/1999/xlink" x="0px" y="0px"
	 width="125px" height="63px" viewBox="243.5 364.5 125 63" enable-background="new 243.5 364.5 125 63" xml:space="preserve">
<rect x="243.5" y="364.775" fill="#F9F9F9" width="125" height="62.725"/>
<rect x="243.5" y="364.775" fill="#49A9EE" width="4.598" height="62.725"/>
<text transform="matrix(1.0059 0 0 1 296.0288 403.4004)" opacity="0.8" enable-background="new    " font-family="'MicrosoftYaHeiLight'" font-size="21.4088">运动</text>
<rect x="243.5" y="425.13" fill="#E5E5E5" width="125" height="2.37"/>
<g>
	<path fill="#49A9EE" d="M272.281,402.106h-1.789v-12.614c0-1.523,0.937-2.455,2.64-2.455c1.618,0,2.639,0.932,2.639,2.455v8.55
		h-1.788v-8.55c0-0.423,0-0.677-0.852-0.677c-0.681,0-0.852,0.253-0.852,0.677V402.106z"/>
	<path fill="#49A9EE" d="M281.817,399.397h-1.788v-3.048c0-1.27-0.256-1.27-0.681-1.354c-0.511,0-0.852,0.169-0.852,0.169
		l-0.511-0.678l-0.511-0.677c0.17-0.169,0.851-0.508,2.043-0.508c1.532,0.169,2.214,1.27,2.214,3.133v2.963H281.817z"/>
	<path fill="#49A9EE" d="M281.562,409.809l-1.277-1.271c0,0,2.214-2.454,2.214-6.432c0-1.778,0-2.625-0.17-4.148
		c0-0.847-0.256-1.101-0.426-1.271c-0.17-0.169-0.511-0.169-0.937-0.169l-0.255-1.777c0.937-0.169,1.788,0,2.384,0.423
		c0.681,0.508,0.937,1.354,1.107,2.455c0.17,1.523,0.17,2.37,0.17,4.232C284.116,406.931,281.562,409.725,281.562,409.809z"/>
	<path fill="#49A9EE" d="M272.366,409.978c-0.17-0.169-2.469-2.031-3.747-3.725c-0.937-1.354-1.362-2.454-1.362-4.824
		c0-1.608,0.17-2.879,0.17-3.048c0.171-1.607,1.107-2.624,2.47-2.624c0.426,0,0.937,0,1.362,0.169l-0.511,1.609l0.255-0.848
		l-0.255,0.848c-0.17,0-0.511,0-0.852,0c-0.511,0-0.681,0.676-0.681,1.101c0,0-0.17,1.269-0.17,2.708
		c0,1.947,0.255,2.624,0.937,3.725c1.107,1.523,3.321,3.302,3.321,3.302L272.366,409.978z"/>
	<path fill="#49A9EE" d="M279.007,398.297h-1.788v-2.879c0-1.523-0.511-1.523-0.852-1.523c-0.852,0-1.277,0.169-1.277,0.169
		l-0.851-1.608c0.17,0,0.851-0.423,2.043-0.423c0.851,0,2.64,0.254,2.64,3.301v2.963H279.007z"/>
	<path fill="#49A9EE" d="M277.9,389.662h-1.362c0-2.031-1.618-3.555-3.576-3.555c-2.044,0-3.576,1.608-3.576,3.555h-1.362
		c0-2.709,2.213-4.91,4.938-4.91C275.687,384.583,277.9,386.869,277.9,389.662z"/>
	<path fill="#49A9EE" d="M280.285,389.662h-0.937c0-3.471-2.896-6.349-6.386-6.349c-3.491,0-6.386,2.878-6.386,6.349h-0.937
		c0-3.979,3.321-7.28,7.323-7.28S280.285,385.514,280.285,389.662z"/>
</g>
</svg>
