<?xml version="1.0" encoding="utf-8"?>
<!-- Generator: Adobe Illustrator 20.0.0, SVG Export Plug-In . SVG Version: 6.00 Build 0)  -->
<svg version="1.1" id="图层_1" xmlns="http://www.w3.org/2000/svg" xmlns:xlink="http://www.w3.org/1999/xlink" x="0px" y="0px"
	 viewBox="0 0 147 74" style="enable-background:new 0 0 147 74;" xml:space="preserve">
<style type="text/css">
	.st0{fill:#30C1F7;}
	.st1{fill:#F9F9F9;}
	.st2{font-family:'MicrosoftYaHeiLight';}
	.st3{font-size:25.2914px;}
</style>
<rect x="0.2" y="0.1" class="st0" width="146.7" height="73.7"/>
<rect x="0.1" y="0.1" class="st0" width="5.4" height="74.1"/>
<text transform="matrix(1 0 0 1 61.7905 45.7314)" class="st1 st2 st3">运动</text>
<g>
	<path class="st1" d="M33.9,44.2h-2.1V29.3c0-1.8,1.1-2.9,3.1-2.9c1.9,0,3.1,1.1,3.1,2.9v10.1h-2.1V29.3c0-0.5,0-0.8-1-0.8
		c-0.8,0-1,0.3-1,0.8V44.2z"/>
	<path class="st1" d="M45.1,41H43v-3.6c0-1.5-0.3-1.5-0.8-1.6c-0.6,0-1,0.2-1,0.2l-0.6-0.8l-0.6-0.8c0.2-0.2,1-0.6,2.4-0.6
		c1.8,0.2,2.6,1.5,2.6,3.7V41H45.1z"/>
	<path class="st1" d="M44.8,53.3l-1.5-1.5c0,0,2.6-2.9,2.6-7.6c0-2.1,0-3.1-0.2-4.9c0-1-0.3-1.3-0.5-1.5s-0.6-0.2-1.1-0.2l-0.3-2.1
		c1.1-0.2,2.1,0,2.8,0.5c0.8,0.6,1.1,1.6,1.3,2.9c0.2,1.8,0.2,2.8,0.2,5C47.8,49.9,44.8,53.2,44.8,53.3z"/>
	<path class="st1" d="M34,53.5c-0.2-0.2-2.9-2.4-4.4-4.4c-1.1-1.6-1.6-2.9-1.6-5.7c0-1.9,0.2-3.4,0.2-3.6c0.2-1.9,1.3-3.1,2.9-3.1
		c0.5,0,1.1,0,1.6,0.2l-0.6,1.9l0.3-1l-0.3,1c-0.2,0-0.6,0-1,0c-0.6,0-0.8,0.8-0.8,1.3c0,0-0.2,1.5-0.2,3.2c0,2.3,0.3,3.1,1.1,4.4
		c1.3,1.8,3.9,3.9,3.9,3.9L34,53.5z"/>
	<path class="st1" d="M41.8,39.7h-2.1v-3.4c0-1.8-0.6-1.8-1-1.8c-1,0-1.5,0.2-1.5,0.2l-1-1.9c0.2,0,1-0.5,2.4-0.5
		c1,0,3.1,0.3,3.1,3.9V39.7z"/>
	<path class="st1" d="M40.5,29.5h-1.6c0-2.4-1.9-4.2-4.2-4.2c-2.4,0-4.2,1.9-4.2,4.2h-1.6c0-3.2,2.6-5.8,5.8-5.8
		C37.9,23.5,40.5,26.2,40.5,29.5z"/>
	<path class="st1" d="M43.3,29.5h-1.1c0-4.1-3.4-7.5-7.5-7.5s-7.5,3.4-7.5,7.5h-1.1c0-4.7,3.9-8.6,8.6-8.6S43.3,24.6,43.3,29.5z"/>
</g>
</svg>
