<?xml version="1.0" encoding="utf-8"?>
<!-- Generator: Adobe Illustrator 20.0.0, SVG Export Plug-In . SVG Version: 6.00 Build 0)  -->
<svg version="1.1" id="图层_1" xmlns="http://www.w3.org/2000/svg" xmlns:xlink="http://www.w3.org/1999/xlink" x="0px" y="0px"
	 viewBox="0 0 147 74" style="enable-background:new 0 0 147 74;" xml:space="preserve">
<style type="text/css">
	.st0{fill:#F9F9F9;}
	.st1{fill:#FB7E73;}
	.st2{opacity:0.8;enable-background:new    ;}
	.st3{font-family:'MicrosoftYaHeiLight';}
	.st4{font-size:25.2914px;}
	.st5{fill:#E5E5E5;}
</style>
<rect x="0.2" y="0.1" class="st0" width="146.7" height="73.7"/>
<rect x="0.1" y="0.1" class="st1" width="5.4" height="74.1"/>
<text transform="matrix(1 0 0 1 61.7905 45.7314)" class="st2 st3 st4">运算</text>
<rect x="0.2" y="71.4" class="st5" width="146.7" height="2.7"/>
<path class="st1" d="M38.1,21.8c1.1,0,0.9,1.1,0.9,2.2v2.2h10.6v2.4h-1.1l4.9,14.3c0,2.2-2.9,4-6,4c-3.1,0-6-1.8-6-4l4.9-14.3h-7.1
	l0.4,20.7c3.7,0.4,6.4,1.6,6.4,3.3H30.1c0-1.6,2.7-3.1,6.4-3.3L37,28.6H29l4.9,14.3c0,2.2-2.9,4-6,4s-6-1.8-6-4l4.9-14.3h-1.3v-2.4
	H37V24C37,22.7,37,21.8,38.1,21.8 M51.3,42.9l-3.5-10.4v10.4H51.3z M43.5,42.9h3.5V32.5L43.5,42.9z M31.7,42.9l-3.5-10.4v10.4H31.7z
	 M23.8,42.9h3.5V32.5L23.8,42.9z"/>
</svg>
