<?xml version="1.0" encoding="utf-8"?>
<!-- Generator: Adobe Illustrator 16.0.0, SVG Export Plug-In . SVG Version: 6.00 Build 0)  -->
<!DOCTYPE svg PUBLIC "-//W3C//DTD SVG 1.0//EN" "http://www.w3.org/TR/2001/REC-SVG-20010904/DTD/svg10.dtd">
<svg version="1.0" id="图层_1" xmlns="http://www.w3.org/2000/svg" xmlns:xlink="http://www.w3.org/1999/xlink" x="0px" y="0px"
	 width="125px" height="63px" viewBox="243.5 364.5 125 63" enable-background="new 243.5 364.5 125 63" xml:space="preserve">
<rect x="243.5" y="364.5" fill="#FB7E73" width="124.959" height="63"/>
<text transform="matrix(1.0012 0 0 1 296.0117 403.2949)" fill="#F9F9F9" font-family="'MicrosoftYaHeiLight'" font-size="21.5028">运算</text>
<path fill="#F9F9F9" d="M275.846,382.949c0.937,0,0.766,0.935,0.766,1.871v1.871h9.023v2.041h-0.937l4.171,12.158
	c0,1.87-2.469,3.401-5.108,3.401c-2.639,0-5.107-1.531-5.107-3.401l4.171-12.158h-6.043l0.341,17.598
	c3.149,0.341,5.448,1.36,5.448,2.807h-13.535c0-1.361,2.298-2.636,5.448-2.807l0.425-17.598h-6.81l4.171,12.158
	c0,1.87-2.469,3.401-5.107,3.401s-5.108-1.531-5.108-3.401l4.171-12.158h-1.106v-2.041h9.789v-1.871
	C274.91,383.715,274.91,382.949,275.846,382.949 M287.083,400.889l-2.979-8.842v8.842H287.083z M280.443,400.889h2.979v-8.842
	L280.443,400.889z M270.398,400.889l-2.979-8.842v8.842H270.398z M263.673,400.889h2.98v-8.842L263.673,400.889z"/>
</svg>
