<?xml version="1.0" encoding="utf-8"?>
<!-- Generator: Adobe Illustrator 16.0.0, SVG Export Plug-In . SVG Version: 6.00 Build 0)  -->
<!DOCTYPE svg PUBLIC "-//W3C//DTD SVG 1.0//EN" "http://www.w3.org/TR/2001/REC-SVG-20010904/DTD/svg10.dtd">
<svg version="1.0" id="图层_1" xmlns="http://www.w3.org/2000/svg" xmlns:xlink="http://www.w3.org/1999/xlink" x="0px" y="0px"
	 width="125px" height="63px" viewBox="243.5 364.5 125 63" enable-background="new 243.5 364.5 125 63" xml:space="preserve">
<rect x="243.5" y="364.5" fill="#F46E65" width="4.598" height="63"/>
<text transform="matrix(1.0015 0 0 1 296.0278 403.2949)" opacity="0.8" enable-background="new    " font-family="'MicrosoftYaHeiLight'" font-size="21.5028">运算</text>
<rect x="243.5" y="425.119" fill="#E5E5E5" width="125" height="2.381"/>
<path fill="#F46E65" d="M275.857,382.949c0.937,0,0.766,0.936,0.766,1.871v1.871h9.026v2.04h-0.937l4.172,12.159
	c0,1.87-2.469,3.4-5.109,3.4c-2.64,0-5.109-1.53-5.109-3.4l4.172-12.159h-6.046l0.341,17.6c3.15,0.34,5.45,1.36,5.45,2.806h-13.539
	c0-1.361,2.299-2.636,5.45-2.806l0.426-17.6h-6.812l4.172,12.159c0,1.87-2.47,3.4-5.109,3.4c-2.64,0-5.109-1.53-5.109-3.4
	l4.173-12.159h-1.107v-2.04h9.792v-1.871C274.92,383.714,274.92,382.949,275.857,382.949 M287.097,400.89l-2.98-8.843v8.843H287.097
	z M280.455,400.89h2.98v-8.843L280.455,400.89z M270.408,400.89l-2.98-8.843v8.843H270.408z M263.68,400.89h2.98v-8.843
	L263.68,400.89z"/>
</svg>
